<?xml version="1.0" encoding="utf-8"?>
<!-- Generator: Adobe Illustrator 16.0.0, SVG Export Plug-In . SVG Version: 6.00 Build 0)  -->
<!DOCTYPE svg PUBLIC "-//W3C//DTD SVG 1.1//EN" "http://www.w3.org/Graphics/SVG/1.1/DTD/svg11.dtd">
<svg version="1.1"
	 id="Layer_1" xmlns:dc="http://purl.org/dc/elements/1.1/" xmlns:cc="http://creativecommons.org/ns#" xmlns:rdf="http://www.w3.org/1999/02/22-rdf-syntax-ns#" xmlns:svg="http://www.w3.org/2000/svg"
	 xmlns="http://www.w3.org/2000/svg" xmlns:xlink="http://www.w3.org/1999/xlink" x="0px" y="0px" width="285.846px"
	 height="142.525px" viewBox="0 0 285.846 142.525" enable-background="new 0 0 285.846 142.525" xml:space="preserve">
<text transform="matrix(1 0 0 1 109.8337 53.5994)" enable-background="new    "><tspan x="0" y="0" fill="#176FC1" font-family="'BlueHighwayLinocut-Regular'" font-size="43.2">Opennet</tspan><tspan x="0" y="51.84" fill="#176FC1" font-family="'BlueHighwayLinocut-Regular'" font-size="43.2">Initiative </tspan></text>
<g>
	<g>
		<path fill="#83A6DC" d="M57.047,21.573c2.038,0.282,4.078,0.527,6.094,0.974c3.266,0.722,6.422,1.76,9.466,3.136
			c5.592,2.528,10.516,6.016,14.762,10.446c2.146,2.238,4.043,4.673,5.73,7.275c0.293,0.453,0.335,0.743-0.206,0.973
			c-0.109,0.046-0.215,0.113-0.303,0.192c-0.461,0.421-0.752,0.345-1.104-0.2c-6.105-9.425-14.536-15.78-25.263-19.104
			c-5.21-1.615-10.549-2.241-15.971-1.923c-7.444,0.438-14.404,2.572-20.8,6.441c-0.616,0.373-0.846,0.215-1.144-0.321
			c-0.493-0.89-0.516-0.873,0.377-1.397c5.158-3.036,10.689-5.047,16.593-6.022c1.227-0.203,2.469-0.314,3.705-0.469
			c0.269-0.143,0.559-0.038,0.836-0.069c0.239,0,0.479,0,0.718,0c0.233,0,0.466,0,0.698,0c0.256-0.035,0.526,0.078,0.771-0.073
			c0.385,0,0.769,0,1.152,0c0.576,0.121,1.152,0.121,1.729,0c0.432,0,0.863,0,1.296,0C56.448,21.617,56.782,21.386,57.047,21.573z"
			/>
		<path fill="#95B3E1" d="M54.889,21.426c-0.576,0.232-1.152,0.229-1.729,0C53.736,21.426,54.313,21.426,54.889,21.426z"/>
		<path fill="#ABC4E7" d="M50.563,21.561c0.003-0.045,0.005-0.089,0.005-0.135c0.24,0,0.479,0,0.72,0
			c0.048,0.033,0.064,0.064,0.046,0.096c-0.016,0.03-0.033,0.046-0.049,0.046C51.043,21.566,50.804,21.563,50.563,21.561z"/>
		<path fill="#98B5E2" d="M51.284,21.567c0.002-0.047,0.003-0.093,0.003-0.141c0.24,0,0.48,0,0.72,0
			C51.805,21.667,51.53,21.54,51.284,21.567z"/>
		<path fill="#82A6DC" d="M57.041,106.235c1.296-1.17,2.497-2.438,3.661-3.734c2.067-2.309,3.961-4.729,5.21-7.607
			c1.161-2.678,0.688-5.068-0.992-7.354c-2.001-2.721-4.572-4.814-7.28-6.768c-1.186-0.854-2.419-1.637-3.63-2.449
			c-0.011-0.268,0.131-0.25,0.309-0.164c3.701,1.174,7.437,2.213,11.25,2.959c1.953,0.383,3.922,0.641,5.906,0.771
			c4.678,0.313,8.156-1.813,10.886-5.418c0.491-0.646,0.899-1.357,1.346-2.039c0.279-0.012,0.182,0.16,0.146,0.303
			c-0.412,2.088-0.853,4.172-1.229,6.266c-0.451,2.498-0.762,5.02-0.673,7.564c0.063,1.789,0.715,3.414,1.452,5.002
			c1.438,3.104,3.342,5.922,5.328,8.689c0.139,0.191,0.308,0.365,0.359,0.609c-0.268,0.18-0.376-0.074-0.534-0.195
			c-2.595-1.945-5.322-3.664-8.272-5.035c-2.928-1.357-5.75-1.002-8.599,0.262c-3.673,1.627-7.104,3.676-10.465,5.854
			c-1.345,0.871-2.669,1.771-4.003,2.658C57.066,106.442,57.014,106.38,57.041,106.235z"/>
		<path fill="#176FC0" d="M18.901,94.889c2.831-1.061,5.643-2.16,8.242-3.73c1.11-0.672,2.149-1.436,3.111-2.313
			c1.752-1.6,2.345-3.553,1.942-5.855c-0.451-2.586-1.507-4.939-2.722-7.236c-0.863-1.633-1.861-3.186-2.833-4.751
			c-0.064-0.152,0.021-0.183,0.147-0.174c2.704,2.371,5.441,4.699,8.399,6.755c1.438,1,2.93,1.908,4.479,2.729
			c3.271,1.73,6.534,1.551,9.817,0.049c1.06-0.482,2.016-1.145,3.033-1.791c0.045,0.34-0.169,0.457-0.287,0.615
			c-1.787,2.404-3.465,4.881-5.076,7.414c-1.997,3.141-2.348,6.516-1.991,10.082c0.234,2.342,0.639,4.65,1.096,6.953
			c0.058,0.152,0.123,0.313-0.148,0.301c-1.182-2.117-2.556-4.104-3.927-6.104c-2.529-3.689-6.113-4.623-10.297-4.361
			c-4.052,0.256-8.063,0.771-12.053,1.498c-0.164,0.029-0.333,0.039-0.499,0.059C19.169,95.05,18.956,95.225,18.901,94.889z"/>
		<path fill="#82A6DC" d="M73.761,72.235c-0.08,1.914-1.343,3.611-3.469,4.598c-2.641,1.229-5.243,0.988-7.594-0.771
			c-3.104-2.33-2.923-6.646,0.329-8.98c3.071-2.202,7.596-1.463,9.804,1.603C73.44,69.522,73.765,70.583,73.761,72.235z"/>
		<path fill="#176FC0" d="M41.987,64.71c2.463,0.087,4.558,1.041,5.991,3.175c1.942,2.892,0.916,6.506-2.227,8.012
			c-3.095,1.484-7.106,0.387-9.005-2.469c-2.419-3.637-0.15-8.192,4.311-8.655C41.342,64.743,41.63,64.733,41.987,64.71z"/>
		<path fill="#176FC0" d="M52.904,30.372c13.815,0.418,24.768,6.125,32.569,17.652c0.336,0.497,0.421,0.816-0.207,1.076
			c-0.131,0.054-0.254,0.142-0.358,0.237c-0.402,0.374-0.638,0.271-0.925-0.186c-1.798-2.861-3.979-5.407-6.514-7.64
			c-6.002-5.283-12.99-8.353-20.942-9.135c-8.035-0.79-15.543,0.915-22.488,5.038c-0.51,0.303-0.752,0.229-0.96-0.275
			c-0.063-0.154-0.148-0.306-0.254-0.435c-0.325-0.396-0.215-0.612,0.218-0.868c5.229-3.087,10.853-4.918,16.917-5.362
			c0.502-0.037,1.004-0.083,1.506-0.102C51.944,30.358,52.424,30.372,52.904,30.372z"/>
		<path fill="#83A6DC" d="M52.985,39.256c8.582,0.186,15.894,3.292,21.828,9.539c1.188,1.252,2.229,2.628,3.174,4.08
			c0.256,0.395,0.243,0.582-0.159,0.848c-1.034,0.682-1.005,0.689-1.725-0.345c-4.65-6.683-10.995-10.705-19.041-11.937
			c-6.48-0.99-12.595,0.187-18.249,3.523c-0.797,0.472-0.893-0.056-1.194-0.485c-0.359-0.512-0.33-0.822,0.271-1.162
			c3.869-2.19,7.985-3.562,12.435-3.924C51.208,39.32,52.091,39.297,52.985,39.256z"/>
		<path fill="#176FC0" d="M70.7,58.064c-0.438,0.311-0.839,0.652-1.293,0.895c-0.389,0.206-0.456-0.25-0.595-0.451
			c-3.604-5.173-8.549-8.006-14.832-8.429c-3.704-0.249-7.198,0.576-10.417,2.443c-0.591,0.344-0.874,0.316-1.174-0.331
			c-0.421-0.905-0.468-0.884,0.375-1.352c9.607-5.319,21.521-2.414,27.629,6.741C70.486,57.719,70.572,57.862,70.7,58.064z"/>
		<path fill="#83A6DC" d="M52.947,57.108c4.114,0.112,7.416,1.784,9.861,5.13c0.303,0.415,0.249,0.62-0.163,0.894
			c-0.941,0.625-0.929,0.645-1.643-0.234c-3.251-3.999-8.359-5.08-12.918-2.699c-0.494,0.258-0.672,0.175-0.908-0.293
			c-0.562-1.104-0.586-1.092,0.552-1.622C49.413,57.493,51.056,57.129,52.947,57.108z"/>
		<path fill="#A8C1E6" d="M54.318,78.159c-0.124,0.016-0.247,0.031-0.31,0.164c-0.227-0.107-0.452-0.217-0.679-0.324
			c-0.012-0.25,0.119-0.209,0.269-0.131C53.847,77.942,54.113,77.975,54.318,78.159z"/>
		<path fill="#4C90CE" d="M18.901,94.889c0.113,0.15,0.292,0.088,0.437,0.133c-0.206,0.16-0.453,0.143-0.69,0.16
			c-0.132,0.012-0.317,0.139-0.319-0.145C18.519,94.991,18.709,94.938,18.901,94.889z"/>
		<path fill="#9CC1E4" d="M18.052,95.333c-0.232,0.158-0.485,0.137-0.817,0.082c0.235-0.158,0.425-0.248,0.653-0.25
			C17.943,95.218,18.041,95.231,18.052,95.333z"/>
		<path fill="#ACC4E8" d="M56.89,106.669c-0.187,0.15-0.372,0.307-0.559,0.455c0.024-0.326,0.206-0.479,0.424-0.602
			C56.821,106.55,56.865,106.6,56.89,106.669z"/>
		<path fill="#2D7DC6" d="M26.79,70.829c-0.049,0.061-0.098,0.114-0.147,0.174c-0.14-0.112-0.277-0.229-0.48-0.396
			C26.538,70.482,26.677,70.628,26.79,70.829z"/>
		<path fill="#6BA3D7" d="M18.052,95.333c-0.056-0.057-0.11-0.109-0.165-0.168c0.146-0.041,0.293-0.082,0.439-0.123
			c0.106,0.047,0.212,0.094,0.319,0.145C18.472,95.325,18.254,95.3,18.052,95.333z"/>
		<path fill="#5998D2" d="M46.113,103.932c0.049-0.102,0.099-0.197,0.148-0.299c0.149,0.199,0.184,0.42,0.115,0.664
			C46.175,104.253,46.146,104.091,46.113,103.932z"/>
		<path fill="#A1BCE5" d="M56.89,106.669c-0.044-0.049-0.09-0.096-0.135-0.146c0.097-0.098,0.191-0.189,0.286-0.287
			c0.059,0.059,0.115,0.115,0.173,0.174C57.106,106.495,56.997,106.581,56.89,106.669z"/>
		<path fill="#9BB7E3" d="M83.834,74.134c0.056,0.055,0.11,0.105,0.165,0.162c-0.019,0.154-0.015,0.318-0.148,0.438
			c-0.048-0.104-0.097-0.201-0.145-0.303C83.749,74.333,83.791,74.233,83.834,74.134z"/>
	</g>
</g>
</svg>
