<?xml version="1.0" encoding="UTF-8" standalone="no"?>
<!-- Generator: Adobe Illustrator 16.0.0, SVG Export Plug-In . SVG Version: 6.00 Build 0)  -->

<svg
   xmlns:dc="http://purl.org/dc/elements/1.1/"
   xmlns:cc="http://creativecommons.org/ns#"
   xmlns:rdf="http://www.w3.org/1999/02/22-rdf-syntax-ns#"
   xmlns:svg="http://www.w3.org/2000/svg"
   xmlns="http://www.w3.org/2000/svg"
   xmlns:sodipodi="http://sodipodi.sourceforge.net/DTD/sodipodi-0.dtd"
   xmlns:inkscape="http://www.inkscape.org/namespaces/inkscape"
   version="1.1"
   id="Layer_1"
   x="0px"
   y="0px"
   width="300px"
   height="100px"
   viewBox="0 0 300 100"
   enable-background="new 0 0 300 100"
   xml:space="preserve"
   sodipodi:docname="logo.svg"
   inkscape:version="0.92.5 (2060ec1f9f, 2020-04-08)"><metadata
   id="metadata55"><rdf:RDF><cc:Work
       rdf:about=""><dc:format>image/svg+xml</dc:format><dc:type
         rdf:resource="http://purl.org/dc/dcmitype/StillImage" /></cc:Work></rdf:RDF></metadata><defs
   id="defs53" /><sodipodi:namedview
   pagecolor="#ffffff"
   bordercolor="#666666"
   borderopacity="1"
   objecttolerance="10"
   gridtolerance="10"
   guidetolerance="10"
   inkscape:pageopacity="0"
   inkscape:pageshadow="2"
   inkscape:window-width="1310"
   inkscape:window-height="704"
   id="namedview51"
   showgrid="false"
   inkscape:zoom="1.88"
   inkscape:cx="140.69149"
   inkscape:cy="50"
   inkscape:window-x="56"
   inkscape:window-y="27"
   inkscape:window-maximized="1"
   inkscape:current-layer="Layer_1" />
<text
   transform="matrix(1 0 0 1 102.8335 54.167)"
   fill="#176FC1"
   font-family="'MyriadPro-Regular'"
   font-size="24"
   id="text2"
   style="-inkscape-font-specification:sans-serif;font-family:sans-serif;font-weight:normal;font-style:normal;font-stretch:normal;font-variant:normal;"><tspan
     style="-inkscape-font-specification:'Blue Highway Bold';font-family:'Blue Highway';font-weight:bold;font-style:normal;font-stretch:normal;font-variant:normal;font-size:29.33333333px"
     id="tspan3760">Opennet Initiative</tspan></text>

<g
   id="g48">
	<g
   id="g46">
		<path
   fill="#83A6DC"
   d="M51.714,7.09c2.038,0.283,4.078,0.528,6.093,0.974c3.266,0.721,6.422,1.759,9.466,3.135    c5.592,2.529,10.516,6.015,14.762,10.447c2.145,2.238,4.043,4.673,5.73,7.276c0.293,0.453,0.335,0.743-0.206,0.972    c-0.109,0.046-0.215,0.113-0.302,0.193c-0.461,0.42-0.752,0.344-1.105-0.201c-6.105-9.424-14.536-15.78-25.263-19.105    c-5.21-1.615-10.548-2.241-15.97-1.922c-7.445,0.438-14.405,2.572-20.8,6.441c-0.616,0.373-0.846,0.215-1.144-0.321    c-0.493-0.89-0.515-0.873,0.377-1.398c5.158-3.036,10.69-5.047,16.593-6.023c1.227-0.203,2.469-0.315,3.705-0.469    c0.269-0.142,0.559-0.038,0.836-0.069c0.239,0,0.479,0,0.718,0c0.233,0,0.466,0,0.698,0c0.256-0.035,0.526,0.078,0.771-0.074    c0.384,0,0.768,0,1.152,0c0.576,0.122,1.152,0.122,1.728,0c0.432,0,0.864,0,1.296,0C51.115,7.134,51.449,6.904,51.714,7.09z"
   id="path4" />
		<path
   fill="#95B3E1"
   d="M49.555,6.944c-0.576,0.232-1.152,0.228-1.728,0C48.402,6.944,48.979,6.944,49.555,6.944z"
   id="path6" />
		<path
   fill="#ABC4E7"
   d="M45.229,7.078c0.003-0.045,0.005-0.089,0.005-0.134c0.24,0,0.48,0,0.72,0    C46.002,6.977,46.018,7.008,46,7.039c-0.016,0.031-0.033,0.046-0.049,0.046C45.71,7.083,45.47,7.08,45.229,7.078z"
   id="path8" />
		<path
   fill="#98B5E2"
   d="M45.951,7.084c0.002-0.047,0.003-0.093,0.003-0.14c0.24,0,0.48,0,0.72,0    C46.471,7.184,46.196,7.057,45.951,7.084z"
   id="path10" />
		<path
   fill="#82A6DC"
   d="M51.708,91.753c1.296-1.171,2.497-2.438,3.661-3.735c2.067-2.308,3.961-4.729,5.21-7.609    c1.161-2.676,0.687-5.069-0.992-7.352c-2.001-2.721-4.573-4.817-7.281-6.768c-1.185-0.854-2.419-1.635-3.63-2.449    c-0.01-0.268,0.131-0.25,0.309-0.165c3.701,1.175,7.437,2.214,11.25,2.959c1.953,0.384,3.922,0.642,5.906,0.772    c4.678,0.312,8.157-1.813,10.886-5.417c0.491-0.648,0.899-1.358,1.346-2.039c0.279-0.011,0.181,0.161,0.145,0.302    c-0.412,2.088-0.852,4.171-1.229,6.266c-0.451,2.498-0.762,5.017-0.673,7.565c0.062,1.789,0.715,3.413,1.452,5.002    c1.438,3.103,3.342,5.921,5.328,8.688c0.139,0.193,0.308,0.365,0.36,0.611c-0.268,0.178-0.376-0.076-0.535-0.197    c-2.594-1.946-5.322-3.664-8.272-5.035c-2.928-1.358-5.75-1.002-8.599,0.261c-3.673,1.628-7.104,3.675-10.465,5.854    c-1.344,0.871-2.668,1.771-4.002,2.658C51.732,91.96,51.68,91.896,51.708,91.753z"
   id="path12" />
		<path
   fill="#176FC0"
   d="M13.567,80.406c2.831-1.059,5.643-2.16,8.242-3.731c1.111-0.671,2.15-1.434,3.112-2.311    c1.752-1.599,2.344-3.552,1.942-5.856c-0.451-2.586-1.507-4.939-2.722-7.236c-0.863-1.633-1.861-3.186-2.833-4.752    c-0.064-0.154,0.022-0.182,0.148-0.174c2.704,2.371,5.441,4.699,8.399,6.756c1.438,1,2.93,1.907,4.48,2.728    c3.271,1.728,6.534,1.55,9.817,0.049c1.06-0.485,2.016-1.146,3.033-1.792c0.045,0.34-0.169,0.457-0.287,0.616    c-1.787,2.405-3.465,4.881-5.076,7.413c-1.997,3.14-2.348,6.515-1.991,10.083c0.234,2.341,0.638,4.651,1.095,6.954    c0.058,0.152,0.124,0.311-0.148,0.299c-1.182-2.117-2.556-4.105-3.927-6.104c-2.529-3.688-6.113-4.623-10.297-4.361    c-4.051,0.255-8.063,0.771-12.052,1.498c-0.164,0.029-0.333,0.039-0.499,0.058C13.836,80.566,13.623,80.742,13.567,80.406z"
   id="path14" />
		<path
   fill="#82A6DC"
   d="M68.427,57.753c-0.08,1.914-1.342,3.611-3.468,4.597c-2.641,1.227-5.243,0.988-7.594-0.774    c-3.105-2.33-2.923-6.647,0.329-8.98c3.071-2.202,7.596-1.463,9.804,1.601C68.106,55.039,68.431,56.1,68.427,57.753z"
   id="path16" />
		<path
   fill="#176FC0"
   d="M36.653,50.227c2.463,0.087,4.558,1.041,5.991,3.175c1.943,2.891,0.916,6.505-2.226,8.012    c-3.095,1.484-7.107,0.385-9.005-2.469c-2.419-3.637-0.151-8.192,4.31-8.655C36.009,50.26,36.297,50.25,36.653,50.227z"
   id="path18" />
		<path
   fill="#176FC0"
   d="M47.57,15.889c13.815,0.418,24.768,6.125,32.569,17.653c0.336,0.497,0.421,0.817-0.207,1.076    c-0.131,0.054-0.254,0.141-0.358,0.238c-0.402,0.374-0.638,0.272-0.925-0.185c-1.798-2.862-3.979-5.408-6.514-7.64    c-6.001-5.283-12.99-8.352-20.942-9.134c-8.035-0.79-15.543,0.915-22.488,5.038c-0.51,0.303-0.752,0.228-0.96-0.276    c-0.063-0.154-0.149-0.305-0.254-0.434c-0.325-0.397-0.215-0.612,0.218-0.868c5.229-3.087,10.852-4.918,16.917-5.363    c0.502-0.037,1.004-0.083,1.506-0.101C46.61,15.875,47.091,15.889,47.57,15.889z"
   id="path20" />
		<path
   fill="#83A6DC"
   d="M47.651,24.773c8.582,0.185,15.894,3.292,21.828,9.539c1.189,1.252,2.23,2.628,3.174,4.08    c0.256,0.394,0.243,0.582-0.159,0.847c-1.034,0.682-1.005,0.69-1.725-0.344c-4.65-6.682-10.995-10.705-19.041-11.936    c-6.48-0.991-12.594,0.186-18.249,3.524c-0.797,0.471-0.892-0.056-1.194-0.486c-0.359-0.511-0.33-0.823,0.27-1.162    c3.87-2.191,7.986-3.561,12.435-3.924C45.875,24.837,46.758,24.814,47.651,24.773z"
   id="path22" />
		<path
   fill="#176FC0"
   d="M65.367,43.581c-0.439,0.31-0.839,0.653-1.293,0.894c-0.389,0.206-0.456-0.25-0.595-0.451    c-3.604-5.173-8.549-8.006-14.832-8.429c-3.704-0.249-7.198,0.577-10.417,2.444c-0.591,0.343-0.874,0.317-1.174-0.331    c-0.421-0.906-0.467-0.884,0.375-1.351c9.608-5.32,21.521-2.414,27.629,6.741C65.152,43.237,65.238,43.379,65.367,43.581z"
   id="path24" />
		<path
   fill="#83A6DC"
   d="M47.613,42.625c4.114,0.113,7.416,1.784,9.861,5.13c0.303,0.415,0.249,0.62-0.163,0.893    c-0.941,0.625-0.928,0.644-1.642-0.235c-3.251-3.999-8.36-5.08-12.918-2.7c-0.494,0.258-0.672,0.175-0.909-0.292    c-0.561-1.104-0.585-1.092,0.552-1.623C44.08,43.01,45.722,42.646,47.613,42.625z"
   id="path26" />
		<path
   fill="#A8C1E6"
   d="M48.984,63.675c-0.124,0.017-0.247,0.032-0.309,0.165c-0.227-0.107-0.453-0.216-0.679-0.324    c-0.012-0.25,0.119-0.209,0.268-0.131C48.513,63.46,48.779,63.492,48.984,63.675z"
   id="path28" />
		<path
   fill="#4C90CE"
   d="M13.567,80.406c0.113,0.152,0.292,0.088,0.437,0.134c-0.206,0.16-0.453,0.142-0.691,0.16    c-0.132,0.011-0.317,0.138-0.319-0.144C13.185,80.507,13.376,80.456,13.567,80.406z"
   id="path30" />
		<path
   fill="#9CC1E4"
   d="M12.718,80.85c-0.232,0.158-0.485,0.137-0.817,0.082c0.235-0.158,0.425-0.248,0.653-0.25    C12.609,80.736,12.708,80.749,12.718,80.85z"
   id="path32" />
		<path
   fill="#ACC4E8"
   d="M51.556,92.186c-0.186,0.15-0.372,0.304-0.558,0.455c0.024-0.326,0.206-0.479,0.424-0.601    C51.487,92.068,51.531,92.117,51.556,92.186z"
   id="path34" />
		<path
   fill="#2D7DC6"
   d="M21.457,56.346c-0.049,0.059-0.098,0.115-0.148,0.174c-0.139-0.114-0.277-0.229-0.48-0.396    C21.205,55.999,21.343,56.145,21.457,56.346z"
   id="path36" />
		<path
   fill="#6BA3D7"
   d="M12.718,80.85c-0.055-0.057-0.11-0.111-0.165-0.168c0.147-0.041,0.293-0.082,0.44-0.123    c0.106,0.047,0.212,0.094,0.319,0.143C13.138,80.842,12.921,80.818,12.718,80.85z"
   id="path38" />
		<path
   fill="#5998D2"
   d="M40.779,89.45c0.049-0.101,0.099-0.198,0.148-0.298c0.15,0.199,0.184,0.42,0.116,0.664    C40.842,89.77,40.812,89.607,40.779,89.45z"
   id="path40" />
		<path
   fill="#A1BCE5"
   d="M51.556,92.186c-0.044-0.049-0.089-0.097-0.134-0.146c0.096-0.097,0.191-0.19,0.286-0.287    c0.058,0.058,0.115,0.115,0.173,0.173C51.772,92.012,51.664,92.098,51.556,92.186z"
   id="path42" />
		<path
   fill="#9BB7E3"
   d="M78.501,59.65c0.055,0.054,0.11,0.107,0.165,0.162c-0.019,0.156-0.015,0.32-0.149,0.438    c-0.048-0.101-0.096-0.201-0.144-0.302C78.416,59.85,78.458,59.75,78.501,59.65z"
   id="path44" />
	</g>
</g>
</svg>