<?xml version="1.0" encoding="utf-8"?>
<!-- Generator: Adobe Illustrator 16.0.0, SVG Export Plug-In . SVG Version: 6.00 Build 0)  -->
<!DOCTYPE svg PUBLIC "-//W3C//DTD SVG 1.1//EN" "http://www.w3.org/Graphics/SVG/1.1/DTD/svg11.dtd">
<svg version="1.1"
	 id="Layer_1" xmlns:dc="http://purl.org/dc/elements/1.1/" xmlns:cc="http://creativecommons.org/ns#" xmlns:rdf="http://www.w3.org/1999/02/22-rdf-syntax-ns#" xmlns:svg="http://www.w3.org/2000/svg"
	 xmlns="http://www.w3.org/2000/svg" xmlns:xlink="http://www.w3.org/1999/xlink" x="0px" y="0px" width="285.846px"
	 height="142.525px" viewBox="0 0 285.846 142.525" enable-background="new 0 0 285.846 142.525" xml:space="preserve">
<g enable-background="new    ">
	<path fill="#176FC1" d="M124.824,54.031c-1.814,0-3.506-0.36-5.076-1.08c-1.57-0.719-2.931-1.764-4.083-3.132
		c-1.152-1.367-2.052-3.045-2.7-5.032s-0.972-4.234-0.972-6.739c0-2.448,0.316-4.658,0.95-6.632
		c0.633-1.972,1.512-3.643,2.635-5.011c1.123-1.367,2.448-2.419,3.975-3.153c1.526-0.734,3.197-1.102,5.011-1.102
		c1.814,0,3.492,0.367,5.033,1.102c1.54,0.734,2.873,1.786,3.996,3.153c1.124,1.368,1.994,3.039,2.614,5.011
		c0.619,1.974,0.929,4.184,0.929,6.632c0,2.477-0.302,4.702-0.907,6.674c-0.604,1.974-1.455,3.65-2.549,5.033
		c-1.095,1.383-2.397,2.44-3.909,3.175C128.259,53.664,126.61,54.031,124.824,54.031z M124.565,27.636
		c-2.073,0-3.773,0.863-5.097,2.592c-1.325,1.728-1.987,4.335-1.987,7.819c0,1.728,0.187,3.247,0.562,4.558
		c0.374,1.311,0.878,2.397,1.512,3.262c0.633,0.863,1.382,1.512,2.246,1.943c0.864,0.433,1.786,0.648,2.765,0.648
		c1.008,0,1.944-0.216,2.808-0.648c0.864-0.432,1.613-1.08,2.247-1.943c0.633-0.864,1.13-1.951,1.49-3.262
		c0.36-1.311,0.54-2.83,0.54-4.558c0-3.484-0.612-6.092-1.836-7.819C128.589,28.5,126.84,27.636,124.565,27.636z"/>
	<path fill="#176FC1" d="M147.417,31.049c0.576-0.489,1.246-0.95,2.009-1.382c0.763-0.433,1.778-0.648,3.046-0.648
		c1.324,0,2.527,0.296,3.607,0.886c1.08,0.591,2.001,1.419,2.764,2.484c0.764,1.065,1.354,2.348,1.771,3.845
		c0.418,1.498,0.627,3.14,0.627,4.925c0,1.814-0.209,3.507-0.627,5.076s-1.008,2.931-1.771,4.082
		c-0.763,1.152-1.684,2.06-2.764,2.722s-2.283,0.993-3.607,0.993c-1.297,0-2.318-0.115-3.067-0.346
		c-0.749-0.229-1.411-0.562-1.987-0.993v8.554l-5.53,2.419V29.451h5.53V31.049z M147.417,45.261c0.316,0.864,0.82,1.577,1.512,2.139
		s1.454,0.843,2.29,0.843c1.642,0,2.8-0.641,3.478-1.923c0.676-1.281,1.016-3.002,1.016-5.162c0-1.987-0.383-3.564-1.146-4.73
		c-0.763-1.167-1.851-1.75-3.261-1.75c-1.01,0-1.836,0.311-2.484,0.929c-0.648,0.62-1.117,1.347-1.404,2.182V45.261z"/>
	<path fill="#176FC1" d="M171.134,44.657c0.086,0.604,0.281,1.138,0.583,1.599s0.662,0.857,1.08,1.188
		c0.417,0.332,0.878,0.577,1.382,0.734c0.504,0.159,1.016,0.238,1.534,0.238c0.72,0,1.368-0.123,1.944-0.367
		c0.575-0.245,1.107-0.698,1.598-1.361l3.759,3.543c-1.065,1.382-2.188,2.361-3.37,2.938c-1.181,0.575-2.549,0.863-4.104,0.863
		c-3.226,0-5.695-1.036-7.408-3.11c-1.715-2.073-2.57-5.082-2.57-9.028c0-2.016,0.244-3.823,0.734-5.422
		c0.488-1.599,1.172-2.952,2.051-4.061s1.938-1.951,3.176-2.527s2.605-0.864,4.104-0.864c1.411,0,2.707,0.253,3.889,0.756
		c1.18,0.505,2.188,1.268,3.023,2.29s1.483,2.305,1.944,3.845c0.46,1.541,0.691,3.348,0.691,5.422c0,0.979-0.015,1.721-0.044,2.225
		c-0.028,0.504-0.072,0.871-0.129,1.102H171.134z M175.583,34.419c-1.209,0-2.218,0.453-3.023,1.36
		c-0.807,0.907-1.282,2.067-1.426,3.478h8.467c-0.172-1.41-0.611-2.57-1.317-3.478S176.677,34.419,175.583,34.419z"/>
	<path fill="#176FC1" d="M202.152,38.479c0-1.065-0.281-1.979-0.843-2.743c-0.562-0.763-1.476-1.145-2.743-1.145
		c-0.836,0-1.563,0.237-2.182,0.713c-0.619,0.475-1.044,1.102-1.273,1.879v16.416h-5.574V29.451h5.574v1.771
		c1.209-1.469,2.865-2.203,4.967-2.203c1.324,0,2.47,0.216,3.436,0.648c0.964,0.432,1.756,1.044,2.375,1.836
		s1.072,1.743,1.361,2.852c0.287,1.108,0.432,2.34,0.432,3.693v15.552h-5.529V38.479z"/>
	<path fill="#176FC1" d="M225.048,38.479c0-1.065-0.281-1.979-0.844-2.743c-0.561-0.763-1.476-1.145-2.742-1.145
		c-0.836,0-1.563,0.237-2.182,0.713c-0.62,0.475-1.045,1.102-1.274,1.879v16.416h-5.573V29.451h5.573v1.771
		c1.21-1.469,2.865-2.203,4.968-2.203c1.324,0,2.469,0.216,3.435,0.648c0.964,0.432,1.757,1.044,2.376,1.836
		s1.072,1.743,1.361,2.852c0.287,1.108,0.432,2.34,0.432,3.693v15.552h-5.529V38.479z"/>
	<path fill="#176FC1" d="M240.47,44.657c0.086,0.604,0.281,1.138,0.583,1.599s0.662,0.857,1.08,1.188
		c0.417,0.332,0.878,0.577,1.382,0.734c0.504,0.159,1.016,0.238,1.534,0.238c0.72,0,1.368-0.123,1.944-0.367
		c0.575-0.245,1.107-0.698,1.598-1.361l3.759,3.543c-1.065,1.382-2.188,2.361-3.37,2.938c-1.181,0.575-2.549,0.863-4.104,0.863
		c-3.226,0-5.695-1.036-7.408-3.11c-1.715-2.073-2.57-5.082-2.57-9.028c0-2.016,0.244-3.823,0.734-5.422
		c0.488-1.599,1.172-2.952,2.051-4.061s1.938-1.951,3.176-2.527s2.605-0.864,4.104-0.864c1.411,0,2.707,0.253,3.889,0.756
		c1.18,0.505,2.188,1.268,3.023,2.29s1.483,2.305,1.944,3.845c0.46,1.541,0.691,3.348,0.691,5.422c0,0.979-0.015,1.721-0.044,2.225
		c-0.028,0.504-0.072,0.871-0.129,1.102H240.47z M244.919,34.419c-1.209,0-2.218,0.453-3.023,1.36
		c-0.807,0.907-1.282,2.067-1.426,3.478h8.467c-0.172-1.41-0.611-2.57-1.317-3.478S246.013,34.419,244.919,34.419z"/>
	<path fill="#176FC1" d="M268.853,53.341c-0.289,0.173-0.713,0.33-1.275,0.475c-0.561,0.144-1.346,0.216-2.354,0.216
		c-1.93,0-3.406-0.641-4.429-1.922s-1.533-2.974-1.533-5.076V34.937H256.8v-5.486h2.462v-4.493l5.486-2.376v6.869h4.147v5.486
		h-4.147v11.361c0,0.807,0.187,1.368,0.562,1.685c0.374,0.317,0.893,0.476,1.555,0.476c0.49,0,0.986-0.101,1.49-0.303
		c0.504-0.201,0.958-0.475,1.361-0.82L268.853,53.341z"/>
</g>
<g enable-background="new    ">
	<path fill="#176FC1" d="M112.598,74.422h5.573v31.018h-5.573V74.422z"/>
	<path fill="#176FC1" d="M136.142,90.319c0-1.065-0.281-1.979-0.843-2.743c-0.562-0.763-1.476-1.145-2.743-1.145
		c-0.835,0-1.563,0.237-2.182,0.713c-0.62,0.475-1.044,1.102-1.274,1.879v16.416h-5.573V81.291h5.573v1.771
		c1.209-1.469,2.865-2.203,4.968-2.203c1.324,0,2.469,0.216,3.435,0.648c0.964,0.432,1.756,1.044,2.376,1.836
		c0.619,0.792,1.072,1.743,1.361,2.852c0.287,1.108,0.432,2.34,0.432,3.693v15.552h-5.529V90.319z"/>
	<path fill="#176FC1" d="M149.189,79.951c-0.951,0-1.692-0.33-2.225-0.993c-0.533-0.662-0.799-1.497-0.799-2.506
		c0-1.037,0.266-1.894,0.799-2.57c0.532-0.677,1.273-1.016,2.225-1.016c0.806,0,1.504,0.339,2.096,1.016
		c0.59,0.677,0.885,1.533,0.885,2.57c0,1.009-0.303,1.844-0.907,2.506C150.657,79.621,149.966,79.951,149.189,79.951z
		 M146.38,81.291h5.573v24.148h-5.573V81.291z"/>
	<path fill="#176FC1" d="M167.03,105.18c-0.288,0.173-0.713,0.33-1.274,0.475c-0.562,0.144-1.347,0.216-2.354,0.216
		c-1.93,0-3.406-0.641-4.429-1.922c-1.021-1.281-1.533-2.974-1.533-5.076V86.777h-2.462v-5.486h2.462v-4.493l5.486-2.376v6.869
		h4.147v5.486h-4.147v11.361c0,0.807,0.188,1.368,0.563,1.685c0.373,0.317,0.893,0.476,1.555,0.476c0.489,0,0.986-0.101,1.49-0.303
		c0.504-0.201,0.957-0.475,1.361-0.82L167.03,105.18z"/>
	<path fill="#176FC1" d="M174.028,79.951c-0.95,0-1.692-0.33-2.226-0.993c-0.533-0.662-0.799-1.497-0.799-2.506
		c0-1.037,0.266-1.894,0.799-2.57s1.275-1.016,2.226-1.016c0.806,0,1.505,0.339,2.095,1.016s0.886,1.533,0.886,2.57
		c0,1.009-0.302,1.844-0.907,2.506C175.496,79.621,174.805,79.951,174.028,79.951z M171.22,81.291h5.572v24.148h-5.572V81.291z"/>
	<path fill="#176FC1" d="M193.208,104.1c-0.49,0.489-1.16,0.907-2.01,1.253c-0.85,0.345-1.777,0.518-2.785,0.518
		c-1.096,0-2.11-0.209-3.046-0.626c-0.937-0.417-1.765-1.008-2.484-1.771c-0.72-0.763-1.282-1.685-1.685-2.765
		c-0.404-1.08-0.605-2.296-0.605-3.65c0-2.822,0.793-4.938,2.377-6.351c1.583-1.41,3.672-2.116,6.264-2.116
		c0.691,0,1.389,0.064,2.096,0.194c0.705,0.129,1.346,0.396,1.922,0.799c-0.201-1.151-0.591-1.966-1.166-2.44
		c-0.576-0.476-1.412-0.713-2.506-0.713c-0.893,0-1.656,0.151-2.289,0.453c-0.635,0.303-1.254,0.713-1.858,1.231l-2.505-4.276
		c0.834-0.922,1.857-1.648,3.066-2.182c1.21-0.533,2.52-0.8,3.932-0.8c1.324,0,2.533,0.216,3.629,0.648
		c1.094,0.432,2.022,1.044,2.786,1.836c0.763,0.792,1.354,1.757,1.771,2.895c0.418,1.138,0.627,2.397,0.627,3.779v15.423h-5.529
		V104.1z M193.165,95.071c-0.231-0.402-0.62-0.741-1.167-1.015c-0.548-0.273-1.152-0.411-1.814-0.411
		c-2.707,0-4.061,1.095-4.061,3.283c0,0.951,0.353,1.707,1.058,2.269c0.706,0.562,1.549,0.842,2.527,0.842
		c1.44,0,2.593-0.518,3.457-1.555V95.071z"/>
	<path fill="#176FC1" d="M213.857,105.18c-0.287,0.173-0.713,0.33-1.273,0.475c-0.563,0.144-1.348,0.216-2.355,0.216
		c-1.93,0-3.406-0.641-4.428-1.922c-1.022-1.281-1.533-2.974-1.533-5.076V86.777h-2.463v-5.486h2.463v-4.493l5.486-2.376v6.869
		h4.146v5.486h-4.146v11.361c0,0.807,0.188,1.368,0.562,1.685c0.374,0.317,0.893,0.476,1.556,0.476c0.488,0,0.986-0.101,1.49-0.303
		c0.504-0.201,0.957-0.475,1.36-0.82L213.857,105.18z"/>
	<path fill="#176FC1" d="M220.855,79.951c-0.95,0-1.691-0.33-2.225-0.993c-0.533-0.662-0.799-1.497-0.799-2.506
		c0-1.037,0.266-1.894,0.799-2.57s1.274-1.016,2.225-1.016c0.807,0,1.505,0.339,2.096,1.016c0.59,0.677,0.885,1.533,0.885,2.57
		c0,1.009-0.302,1.844-0.906,2.506C222.323,79.621,221.632,79.951,220.855,79.951z M218.047,81.291h5.573v24.148h-5.573V81.291z"/>
	<path fill="#176FC1" d="M233.425,105.439l-6.868-24.148h5.919l3.887,15.422l4.018-15.422h5.876l-6.956,24.148H233.425z"/>
	<path fill="#176FC1" d="M253.558,96.497c0.086,0.604,0.28,1.138,0.582,1.599c0.303,0.461,0.662,0.857,1.08,1.188
		c0.418,0.332,0.879,0.577,1.383,0.734c0.504,0.159,1.016,0.238,1.533,0.238c0.721,0,1.368-0.123,1.944-0.367
		c0.575-0.245,1.108-0.698,1.599-1.361l3.758,3.543c-1.065,1.382-2.188,2.361-3.369,2.938c-1.182,0.575-2.549,0.863-4.104,0.863
		c-3.227,0-5.696-1.036-7.409-3.11c-1.714-2.073-2.57-5.082-2.57-9.028c0-2.016,0.244-3.823,0.734-5.422
		c0.489-1.599,1.173-2.952,2.052-4.061s1.937-1.951,3.176-2.527c1.237-0.576,2.605-0.864,4.104-0.864
		c1.41,0,2.707,0.253,3.889,0.756c1.18,0.505,2.188,1.268,3.023,2.29c0.835,1.022,1.482,2.305,1.943,3.845
		c0.461,1.541,0.691,3.348,0.691,5.422c0,0.979-0.015,1.721-0.043,2.225c-0.029,0.504-0.072,0.871-0.129,1.102H253.558z
		 M258.007,86.259c-1.21,0-2.219,0.453-3.024,1.36c-0.807,0.907-1.282,2.067-1.425,3.478h8.467c-0.173-1.41-0.612-2.57-1.318-3.478
		C260.001,86.712,259.101,86.259,258.007,86.259z"/>
</g>
<g>
	<g>
		<path fill="#83A6DC" d="M57.047,21.573c2.038,0.282,4.078,0.527,6.094,0.974c3.268,0.724,6.422,1.762,9.466,3.138
			C78.2,28.211,83.124,31.7,87.37,36.129c2.146,2.238,4.043,4.673,5.729,7.275c0.293,0.453,0.335,0.743-0.206,0.973
			c-0.107,0.046-0.215,0.113-0.303,0.192c-0.461,0.421-0.752,0.345-1.104-0.2c-6.104-9.425-14.534-15.78-25.263-19.104
			c-5.21-1.615-10.549-2.241-15.971-1.925c-7.444,0.438-14.404,2.572-20.8,6.441c-0.616,0.373-0.848,0.215-1.146-0.321
			c-0.493-0.89-0.516-0.873,0.377-1.396c5.158-3.036,10.689-5.047,16.593-6.022c1.229-0.203,2.471-0.313,3.705-0.469
			c0.271-0.143,0.561-0.038,0.836-0.069c0.239,0,0.479,0,0.72,0c0.231,0,0.466,0,0.696,0c0.258-0.033,0.526,0.078,0.771-0.071
			c0.385,0,0.769,0,1.152,0c0.574,0.119,1.15,0.119,1.729,0c0.432,0,0.863,0,1.296,0C56.448,21.617,56.782,21.385,57.047,21.573z"/>
		<path fill="#95B3E1" d="M54.889,21.426c-0.576,0.232-1.152,0.229-1.729,0C53.736,21.426,54.313,21.426,54.889,21.426z"/>
		<path fill="#ABC4E7" d="M50.563,21.561c0.003-0.045,0.005-0.089,0.005-0.137c0.24,0,0.479,0,0.722,0
			c0.048,0.033,0.063,0.064,0.046,0.098c-0.018,0.028-0.033,0.046-0.049,0.046C51.043,21.566,50.804,21.563,50.563,21.561z"/>
		<path fill="#98B5E2" d="M51.284,21.567c0.002-0.047,0.003-0.093,0.003-0.143c0.238,0,0.479,0,0.72,0
			C51.805,21.667,51.53,21.54,51.284,21.567z"/>
		<path fill="#82A6DC" d="M57.041,106.235c1.296-1.17,2.497-2.438,3.661-3.734c2.065-2.309,3.961-4.729,5.21-7.605
			c1.161-2.68,0.688-5.068-0.992-7.354c-2.001-2.721-4.572-4.813-7.28-6.768c-1.186-0.854-2.419-1.639-3.63-2.449
			c-0.011-0.268,0.131-0.25,0.309-0.164c3.701,1.174,7.438,2.213,11.25,2.959c1.953,0.383,3.924,0.641,5.906,0.771
			c4.678,0.313,8.156-1.813,10.886-5.418c0.491-0.646,0.899-1.357,1.348-2.039c0.277-0.014,0.182,0.158,0.146,0.303
			c-0.412,2.088-0.853,4.172-1.229,6.266c-0.451,2.498-0.764,5.021-0.673,7.564c0.063,1.789,0.715,3.414,1.45,5.002
			c1.438,3.104,3.344,5.922,5.328,8.688c0.141,0.191,0.31,0.365,0.359,0.609c-0.269,0.18-0.376-0.074-0.534-0.195
			c-2.595-1.943-5.322-3.664-8.271-5.035c-2.93-1.355-5.75-1.002-8.601,0.264c-3.673,1.627-7.104,3.676-10.465,5.854
			c-1.345,0.871-2.669,1.771-4.003,2.658C57.066,106.442,57.014,106.38,57.041,106.235z"/>
		<path fill="#176FC0" d="M18.901,94.889c2.831-1.063,5.645-2.16,8.242-3.73c1.11-0.672,2.149-1.436,3.111-2.313
			c1.752-1.602,2.345-3.555,1.94-5.855c-0.449-2.586-1.507-4.939-2.722-7.236c-0.863-1.633-1.861-3.186-2.833-4.751
			c-0.063-0.15,0.021-0.183,0.147-0.174c2.704,2.371,5.439,4.699,8.397,6.755c1.438,1,2.932,1.908,4.479,2.729
			c3.271,1.729,6.534,1.551,9.815,0.049c1.062-0.482,2.018-1.146,3.033-1.791c0.045,0.34-0.169,0.457-0.287,0.615
			c-1.787,2.402-3.465,4.881-5.076,7.414c-1.997,3.141-2.348,6.516-1.989,10.082c0.232,2.342,0.639,4.648,1.096,6.951
			c0.058,0.152,0.123,0.313-0.148,0.303c-1.182-2.117-2.556-4.104-3.927-6.104c-2.529-3.688-6.113-4.623-10.297-4.359
			c-4.052,0.256-8.063,0.771-12.053,1.498c-0.164,0.027-0.333,0.037-0.499,0.059C19.169,95.05,18.956,95.225,18.901,94.889z"/>
		<path fill="#82A6DC" d="M73.761,72.235c-0.08,1.914-1.343,3.611-3.469,4.598c-2.643,1.229-5.243,0.988-7.594-0.771
			c-3.104-2.33-2.925-6.646,0.327-8.98c3.071-2.202,7.598-1.463,9.806,1.604C73.44,69.522,73.765,70.583,73.761,72.235z"/>
		<path fill="#176FC0" d="M41.987,64.71c2.465,0.087,4.56,1.041,5.991,3.175c1.942,2.894,0.916,6.508-2.227,8.014
			c-3.097,1.482-7.106,0.387-9.005-2.471c-2.419-3.637-0.15-8.19,4.311-8.653C41.342,64.743,41.63,64.733,41.987,64.71z"/>
		<path fill="#176FC0" d="M52.904,30.372c13.815,0.418,24.77,6.125,32.569,17.652c0.336,0.497,0.421,0.814-0.207,1.076
			c-0.131,0.054-0.254,0.142-0.356,0.235c-0.402,0.374-0.64,0.271-0.927-0.186c-1.798-2.861-3.979-5.407-6.514-7.642
			c-6.002-5.281-12.99-8.353-20.942-9.135c-8.033-0.79-15.543,0.915-22.486,5.038c-0.512,0.303-0.752,0.229-0.96-0.273
			c-0.063-0.154-0.148-0.308-0.254-0.437c-0.325-0.396-0.217-0.612,0.218-0.868c5.229-3.087,10.853-4.918,16.917-5.36
			c0.502-0.037,1.004-0.083,1.506-0.104C51.944,30.358,52.424,30.372,52.904,30.372z"/>
		<path fill="#83A6DC" d="M52.985,39.256c8.582,0.188,15.896,3.292,21.828,9.539c1.188,1.252,2.229,2.628,3.174,4.08
			c0.258,0.396,0.243,0.582-0.157,0.85c-1.034,0.682-1.005,0.688-1.727-0.347c-4.648-6.683-10.995-10.705-19.041-11.937
			c-6.479-0.99-12.595,0.187-18.249,3.521c-0.797,0.474-0.893-0.056-1.192-0.483c-0.359-0.514-0.33-0.822,0.271-1.162
			c3.869-2.19,7.985-3.563,12.437-3.924C51.208,39.32,52.091,39.297,52.985,39.256z"/>
		<path fill="#176FC0" d="M70.7,58.064c-0.438,0.311-0.841,0.65-1.293,0.895c-0.391,0.206-0.456-0.25-0.597-0.451
			c-3.604-5.173-8.549-8.006-14.832-8.429c-3.704-0.249-7.196,0.576-10.417,2.443c-0.591,0.344-0.874,0.314-1.174-0.331
			c-0.421-0.905-0.468-0.884,0.375-1.354c9.607-5.317,21.521-2.414,27.629,6.741C70.486,57.719,70.572,57.862,70.7,58.064z"/>
		<path fill="#83A6DC" d="M52.947,57.108c4.114,0.11,7.416,1.784,9.861,5.13c0.303,0.415,0.249,0.62-0.163,0.894
			c-0.939,0.625-0.929,0.646-1.643-0.232c-3.251-3.999-8.359-5.08-12.918-2.699c-0.494,0.258-0.672,0.175-0.908-0.293
			c-0.563-1.104-0.586-1.092,0.552-1.622C49.413,57.493,51.056,57.129,52.947,57.108z"/>
		<path fill="#A8C1E6" d="M54.318,78.159c-0.124,0.016-0.247,0.031-0.31,0.164c-0.229-0.107-0.452-0.217-0.679-0.324
			c-0.014-0.25,0.119-0.209,0.269-0.131C53.847,77.942,54.113,77.975,54.318,78.159z"/>
		<path fill="#4C90CE" d="M18.901,94.889c0.113,0.148,0.292,0.088,0.438,0.133c-0.206,0.16-0.453,0.143-0.69,0.16
			c-0.132,0.012-0.315,0.139-0.317-0.146C18.519,94.991,18.709,94.938,18.901,94.889z"/>
		<path fill="#9CC1E4" d="M18.052,95.333c-0.232,0.158-0.485,0.139-0.817,0.082c0.235-0.158,0.427-0.248,0.653-0.25
			C17.943,95.218,18.041,95.231,18.052,95.333z"/>
		<path fill="#ACC4E8" d="M56.89,106.669c-0.187,0.15-0.372,0.309-0.559,0.455c0.022-0.326,0.206-0.479,0.424-0.602
			C56.821,106.55,56.865,106.6,56.89,106.669z"/>
		<path fill="#2D7DC6" d="M26.79,70.829c-0.049,0.063-0.1,0.114-0.147,0.174c-0.14-0.11-0.275-0.229-0.479-0.396
			C26.538,70.482,26.677,70.628,26.79,70.829z"/>
		<path fill="#6BA3D7" d="M18.052,95.333c-0.056-0.057-0.11-0.107-0.165-0.168c0.146-0.041,0.293-0.082,0.439-0.123
			c0.104,0.047,0.212,0.094,0.317,0.146C18.472,95.325,18.254,95.3,18.052,95.333z"/>
		<path fill="#5998D2" d="M46.113,103.932c0.051-0.104,0.101-0.197,0.148-0.301c0.149,0.199,0.184,0.42,0.115,0.664
			C46.175,104.253,46.146,104.091,46.113,103.932z"/>
		<path fill="#A1BCE5" d="M56.89,106.669c-0.044-0.049-0.09-0.096-0.135-0.146c0.097-0.1,0.189-0.189,0.286-0.287
			c0.059,0.059,0.113,0.115,0.173,0.174C57.106,106.495,56.997,106.581,56.89,106.669z"/>
		<path fill="#9BB7E3" d="M83.834,74.134c0.056,0.057,0.108,0.105,0.165,0.162c-0.021,0.154-0.017,0.318-0.148,0.438
			c-0.048-0.104-0.097-0.201-0.145-0.303C83.749,74.333,83.791,74.233,83.834,74.134z"/>
	</g>
</g>
</svg>
