<?xml version="1.0" encoding="utf-8"?>
<!-- Generator: Adobe Illustrator 16.0.0, SVG Export Plug-In . SVG Version: 6.00 Build 0)  -->
<!DOCTYPE svg PUBLIC "-//W3C//DTD SVG 1.1//EN" "http://www.w3.org/Graphics/SVG/1.1/DTD/svg11.dtd">
<svg version="1.1"
	 id="Layer_1" xmlns:dc="http://purl.org/dc/elements/1.1/" xmlns:cc="http://creativecommons.org/ns#" xmlns:rdf="http://www.w3.org/1999/02/22-rdf-syntax-ns#" xmlns:svg="http://www.w3.org/2000/svg"
	 xmlns="http://www.w3.org/2000/svg" xmlns:xlink="http://www.w3.org/1999/xlink" x="0px" y="0px" width="300px" height="100px"
	 viewBox="0 0 300 100" enable-background="new 0 0 300 100" xml:space="preserve">
<g>
	<g>
		<path fill="#02296B" d="M87.489,27.534c-1.622,0-3.039,0-4.663,0c0-1.422,0-2.682,0-4.145c3.375,0,6.81,0,10.454,0
			c0,15.967,0,31.937,0,48.13c-3.378,0-6.805,0-10.45,0c0-1.205,0-2.457,0-3.953c1.444-0.092,2.955-0.188,4.659-0.297
			C87.489,54.145,87.489,41.063,87.489,27.534z"/>
		<path fill="#8CAED7" d="M73.927,71.717c-0.948,5.525,2.268,9.727,4.705,14.617c-7.762-6.17-14.943-3.936-22.048,0.646
			c-0.779,0.502-1.784,0.652-2.686,0.965c-0.13-0.123-0.257-0.244-0.386-0.365c1.189-1.471,2.297-3.018,3.583-4.398
			c3.136-3.361,2.804-7.47-0.751-10.281c-2.316-1.832-4.443-3.9-7.302-6.438c4.544,0.81,8.279,1.474,12.015,2.133
			c4.809,0.851,8.975-0.204,12.174-4.116c0.456,0.752,1.282,1.502,1.292,2.26C74.544,68.393,74.15,70.057,73.927,71.717z"/>
		<path fill="#02296B" d="M9.628,23.29c3.3,0,6.399,0,9.78,0c0.06,1.315,0.117,2.568,0.185,4.059
			c-1.68,0.108-3.19,0.206-4.899,0.316c0,13.117,0,26.199,0,39.55c1.443,0.1,2.943,0.2,4.655,0.317c0,1.278,0,2.534,0,4.009
			c-3.121,0-6.315,0-9.721,0C9.628,55.585,9.628,39.616,9.628,23.29z"/>
		<path fill="#076DB3" d="M24.033,63.154c0.255-0.997-2.539-1.836-0.152-2.942c1.916,1.423,3.831,2.849,5.747,4.271
			c4.452,4.111,9.45,5.19,15.087,2.72l0.256,0.229c-0.402,0.719-0.708,1.519-1.221,2.146c-3.928,4.814-6.216,10.074-4.292,16.05
			c-3.214-2.114-6.081-4.979-9.494-5.978c-3.513-1.024-7.558-0.229-11.405-0.229c2.575-2.882,8.035-2.609,8.897-7.589
			C26.315,68.941,25.174,66.048,24.033,63.154z"/>
		<path fill="#02296B" d="M29.627,64.482c-1.916-1.424-3.831-2.85-5.747-4.271c0.015-12.33,0.029-24.662,0.044-36.993
			c2.937-0.008,5.878-0.11,8.806,0.044c0.715,0.038,1.385,0.915,2.076,1.405c-1.779,0.918-3.579,1.797-5.329,2.767
			c-1.443,0.799-1.842,1.631,0.162,2.234C29.635,41.274,29.631,52.879,29.627,64.482z"/>
		<path fill="#042B6C" d="M73.177,33.471c0-1.873,0-3.745,0-5.883c-2.214,0-4.184,0-7.242,0c0.903-1.882,1.525-3.177,2.147-4.473
			c4.142,1.78,8.021,3.894,10.262,8.086c0,13.376,0,26.753,0,40.516c-1.629,0-3.023,0-4.418,0c0.224-1.66,0.617-3.324,0.596-4.98
			c-0.01-0.76-0.836-1.508-1.292-2.262c0.015-8.939,0.03-17.882,0.044-26.824c0.975,0.702,1.95,1.403,2.926,2.104
			c-0.064-1.413-0.643-2.358-1.219-3.305C74.378,35.458,73.778,34.463,73.177,33.471z"/>
		<path fill="#92B2D8" d="M78.345,31.201c-2.241-4.193-6.121-6.307-10.262-8.086c-4.585-3.981-10.301-4.857-15.985-5.745
			c-8.983-1.403-17.462,0.233-25.497,4.417c-0.842,0.438-1.795,0.666-2.696,0.992c0.126-0.607,0.057-1.586,0.408-1.772
			c15.12-8.026,30.176-7.965,45.164,0.438c1.75,0.981,3.677,1.649,5.525,2.455c0.425,0.185,1.039,0.213,1.268,0.529
			c2.38,3.296,4.716,6.626,7.004,9.987c0.199,0.292-0.028,0.875-0.095,1.913C81.322,34.36,79.833,32.78,78.345,31.201z"/>
		<path fill="#096FB4" d="M37.005,64.191c-3.19,0.08-6.16-2.396-6.333-5.278c-0.164-2.726,2.338-5.146,5.368-5.188
			c3.721-0.055,6.821,2.426,6.85,5.479C42.917,62.159,40.624,64.104,37.005,64.191z"/>
		<path fill="#1877B8" d="M73.177,33.471c0.602,0.993,1.202,1.987,1.805,2.979c0.576,0.947,1.155,1.892,1.219,3.305
			c-0.976-0.701-1.951-1.402-2.926-2.104C63.013,24.782,45.563,21.67,31.354,28.417c-0.628,0.298-1.146,0.83-1.715,1.252
			c-2.004-0.604-1.605-1.436-0.162-2.235c1.75-0.97,3.55-1.849,5.329-2.767c6.733-1.356,13.444-2.129,20.283-0.448
			c5.838,1.435,10.992,3.966,15.4,8.076C71.164,32.925,72.271,33.09,73.177,33.471z"/>
		<path fill="#8DAFD7" d="M60.088,54.953c3.033,0.048,5.715,2.308,5.75,4.846c0.038,2.768-3.036,5.434-6.185,5.362
			c-3.614-0.081-6.126-2.229-6.143-5.251C53.493,56.646,55.828,54.885,60.088,54.953z"/>
		<path fill="#97B6DB" d="M69.112,44.045c-10.094-12.173-22.507-13.432-36.487-8.366c5.146-4.708,11.427-5.131,17.69-4.33
			C58.477,32.394,65.213,36.137,69.112,44.045z"/>
		<path fill="#1978B9" d="M36.44,42.414c5.06-3.551,10.507-4.291,16.195-2.338c4.211,1.445,8.277,3.271,9.757,8.27
			C55.044,40.458,46.436,38.791,36.44,42.414z"/>
		<path fill="#98B7DB" d="M41.505,47.907c4.047-1.348,8.006-1.519,11.543,1.281c0.929,0.737,1.49,1.938,1.835,3.447
			c-3.833-4.854-8.77-4.042-13.675-3.357C41.308,48.821,41.406,48.364,41.505,47.907z"/>
		<path fill="#022C6E" d="M24.033,63.154c1.141,2.894,2.283,5.787,3.423,8.681c-1.069-0.054-2.137-0.106-3.423-0.17
			C24.033,68.818,24.033,65.986,24.033,63.154z"/>
		<path fill="#076DB3" d="M44.715,67.201c0.228-0.104,0.456-0.206,0.683-0.311c-0.142,0.182-0.285,0.359-0.427,0.541L44.715,67.201z
			"/>
		<path fill="#8CAED7" d="M52.829,88.346c0.228-0.254,0.455-0.51,0.683-0.766c0.128,0.121,0.256,0.242,0.386,0.365
			c-0.287,0.203-0.576,0.402-0.865,0.604L52.829,88.346z"/>
		<path fill="#8CAED7" d="M53.032,88.549c-0.216,0.064-0.433,0.129-0.649,0.193c0.149-0.133,0.298-0.264,0.446-0.396L53.032,88.549z
			"/>
	</g>
</g>
<text transform="matrix(0.9279 0 0 1 112.1167 52)" fill="#02296B" font-family="'Arial-BoldMT'" font-size="39">OPENNET</text>
<text transform="matrix(0.9279 0 0 1 124.6938 85.6279)" fill="#02296B" font-family="'Arial-BoldMT'" font-size="27">Initiative e.V.</text>
</svg>
